<?xml version="1.0" encoding="UTF-8" standalone="no"?>
<!-- Created with Inkscape (http://www.inkscape.org/) -->

<svg
   xmlns:dc="http://purl.org/dc/elements/1.1/"
   xmlns:cc="http://creativecommons.org/ns#"
   xmlns:rdf="http://www.w3.org/1999/02/22-rdf-syntax-ns#"
   xmlns:svg="http://www.w3.org/2000/svg"
   xmlns="http://www.w3.org/2000/svg"
   xmlns:xlink="http://www.w3.org/1999/xlink"
   xmlns:sodipodi="http://sodipodi.sourceforge.net/DTD/sodipodi-0.dtd"
   xmlns:inkscape="http://www.inkscape.org/namespaces/inkscape"
   width="256"
   height="256"
   id="svg2"
   version="1.1"
   inkscape:version="0.48.5 r10040"
   sodipodi:docname="256.svg">
  <defs
     id="defs4" />
  <sodipodi:namedview
     id="base"
     pagecolor="#ffffff"
     bordercolor="#666666"
     borderopacity="1.0"
     inkscape:pageopacity="0.0"
     inkscape:pageshadow="2"
     inkscape:zoom="1.4142136"
     inkscape:cx="125.06224"
     inkscape:cy="109.91323"
     inkscape:document-units="px"
     inkscape:current-layer="layer1"
     showgrid="true"
     inkscape:snap-bbox="true"
     inkscape:snap-bbox-edge-midpoints="true"
     inkscape:bbox-nodes="true"
     inkscape:bbox-paths="true"
     inkscape:snap-bbox-midpoints="true"
     showborder="false"
     inkscape:window-width="1366"
     inkscape:window-height="702"
     inkscape:window-x="0"
     inkscape:window-y="27"
     inkscape:window-maximized="1">
    <inkscape:grid
       type="xygrid"
       id="grid2985"
       empspacing="4"
       visible="true"
       enabled="true"
       snapvisiblegridlinesonly="true" />
  </sodipodi:namedview>
  <metadata
     id="metadata7">
    <rdf:RDF>
      <cc:Work
         rdf:about="">
        <dc:format>image/svg+xml</dc:format>
        <dc:type
           rdf:resource="http://purl.org/dc/dcmitype/StillImage" />
        <dc:title />
      </cc:Work>
    </rdf:RDF>
  </metadata>
  <g
     inkscape:label="Layer 1"
     inkscape:groupmode="layer"
     id="layer1"
     transform="translate(0,-796.3622)">
    <g
       id="g3760"
       transform="matrix(16,0,0,16,0,-15785.433)">
      <path
         transform="matrix(1.1666667,0,0,1.1666667,-2.0833335,1035.7789)"
         d="m 12.5,3.5 c 0,1.6568542 -1.343146,3 -3,3 -1.6568542,0 -3,-1.3431458 -3,-3 0,-1.6568542 1.3431458,-3 3,-3 1.656854,0 3,1.3431458 3,3 z"
         sodipodi:ry="3"
         sodipodi:rx="3"
         sodipodi:cy="3.5"
         sodipodi:cx="9.5"
         id="path3759"
         style="fill:#ffffff;fill-opacity:1;stroke:none"
         sodipodi:type="arc" />
      <use
         height="16"
         width="16"
         transform="translate(-5.5,5.4999702)"
         id="use3761"
         xlink:href="#path3759"
         y="0"
         x="0" />
      <path
         transform="translate(-0.5,1035.8622)"
         d="m 15.5,9.5 c 0,3.313708 -2.686292,6 -6,6 -3.3137085,0 -6,-2.686292 -6,-6 0,-3.3137085 2.6862915,-6 6,-6 3.313708,0 6,2.6862915 6,6 z"
         sodipodi:ry="6"
         sodipodi:rx="6"
         sodipodi:cy="9.5"
         sodipodi:cx="9.5"
         id="path2989"
         style="fill:#7fdd3c;fill-opacity:1;stroke:#ffffff;stroke-opacity:1"
         sodipodi:type="arc" />
      <path
         sodipodi:type="arc"
         style="fill:#7fdd3c;fill-opacity:1;stroke:none"
         id="path3763"
         sodipodi:cx="9.5"
         sodipodi:cy="3.5"
         sodipodi:rx="2.5"
         sodipodi:ry="2.5"
         d="M 12,3.5 C 12,4.8807119 10.880712,6 9.5,6 8.1192881,6 7,4.8807119 7,3.5 7,2.1192881 8.1192881,1 9.5,1 10.880712,1 12,2.1192881 12,3.5 z"
         transform="translate(-0.5,1036.3622)" />
      <use
         height="16"
         width="16"
         transform="translate(-5.5,5.5)"
         id="use3765"
         xlink:href="#path3763"
         y="0"
         x="0" />
      <path
         transform="translate(2,1034.3622)"
         d="M 8,9 C 8,9.5522847 7.5522847,10 7,10 6.4477153,10 6,9.5522847 6,9 6,8.4477153 6.4477153,8 7,8 7.5522847,8 8,8.4477153 8,9 z"
         sodipodi:ry="1"
         sodipodi:rx="1"
         sodipodi:cy="9"
         sodipodi:cx="7"
         id="path3767"
         style="fill:#ffffff;fill-opacity:1;stroke:none"
         sodipodi:type="arc" />
      <use
         height="16"
         width="16"
         transform="translate(-2,2)"
         id="use3769"
         xlink:href="#path3767"
         y="0"
         x="0" />
      <rect
         transform="translate(0,1036.3622)"
         y="0"
         x="0"
         height="16"
         width="16"
         id="rect2990"
         style="fill:none;stroke:none" />
    </g>
  </g>
</svg>
