<?xml version="1.0" encoding="UTF-8" standalone="no"?>
<!-- Created with Inkscape (http://www.inkscape.org/) -->

<svg
   xmlns:dc="http://purl.org/dc/elements/1.1/"
   xmlns:cc="http://creativecommons.org/ns#"
   xmlns:rdf="http://www.w3.org/1999/02/22-rdf-syntax-ns#"
   xmlns:svg="http://www.w3.org/2000/svg"
   xmlns="http://www.w3.org/2000/svg"
   xmlns:xlink="http://www.w3.org/1999/xlink"
   version="1.1"
   width="64"
   height="64"
   id="svg2">
  <defs
     id="defs4" />
  <metadata
     id="metadata7">
    <rdf:RDF>
      <cc:Work
         rdf:about="">
        <dc:format>image/svg+xml</dc:format>
        <dc:type
           rdf:resource="http://purl.org/dc/dcmitype/StillImage" />
        <dc:title />
      </cc:Work>
    </rdf:RDF>
  </metadata>
  <g
     transform="translate(0,-988.3622)"
     id="layer1">
    <g
       transform="matrix(4,0,0,4,0,-3157.0866)"
       id="g3760">
      <path
         d="m 12.5,3.5 a 3,3 0 1 1 -6,0 3,3 0 1 1 6,0 z"
         transform="matrix(1.1666667,0,0,1.1666667,-2.0833335,1035.7789)"
         id="path3759"
         style="fill:#ffffff;fill-opacity:1;stroke:none" />
      <use
         transform="translate(-5.5,5.4999702)"
         id="use3761"
         x="0"
         y="0"
         width="16"
         height="16"
         xlink:href="#path3759" />
      <path
         d="m 15.5,9.5 a 6,6 0 1 1 -12,0 6,6 0 1 1 12,0 z"
         transform="translate(-0.5,1035.8622)"
         id="path2989"
         style="fill:#81d147;fill-opacity:1;stroke:#ffffff;stroke-opacity:1" />
      <path
         d="m 12,3.5 a 2.5,2.5 0 1 1 -5,0 2.5,2.5 0 1 1 5,0 z"
         transform="translate(-0.5,1036.3622)"
         id="path3763"
         style="fill:#81d147;fill-opacity:1;stroke:none" />
      <use
         transform="translate(-5.5,5.5)"
         id="use3765"
         x="0"
         y="0"
         width="16"
         height="16"
         xlink:href="#path3763" />
      <path
         d="M 8,9 A 1,1 0 1 1 6,9 1,1 0 1 1 8,9 z"
         transform="translate(2,1034.3622)"
         id="path3767"
         style="fill:#ffffff;fill-opacity:1;stroke:none" />
      <use
         transform="translate(-2,2)"
         id="use3769"
         x="0"
         y="0"
         width="16"
         height="16"
         xlink:href="#path3767" />
      <rect
         width="16"
         height="16"
         x="0"
         y="0"
         transform="translate(0,1036.3622)"
         id="rect2990"
         style="fill:none;stroke:none" />
    </g>
  </g>
</svg>
