<?xml version="1.0" encoding="UTF-8" standalone="no"?>
<!-- Created with Inkscape (http://www.inkscape.org/) -->

<svg
   xmlns:dc="http://purl.org/dc/elements/1.1/"
   xmlns:cc="http://creativecommons.org/ns#"
   xmlns:rdf="http://www.w3.org/1999/02/22-rdf-syntax-ns#"
   xmlns:svg="http://www.w3.org/2000/svg"
   xmlns="http://www.w3.org/2000/svg"
   xmlns:sodipodi="http://sodipodi.sourceforge.net/DTD/sodipodi-0.dtd"
   xmlns:inkscape="http://www.inkscape.org/namespaces/inkscape"
   width="700"
   height="300"
   id="svg2"
   version="1.1"
   inkscape:version="0.48.5 r10040"
   sodipodi:docname="clouds.svg">
  <defs
     id="defs4" />
  <sodipodi:namedview
     id="base"
     pagecolor="#ffffff"
     bordercolor="#666666"
     borderopacity="1.0"
     inkscape:pageopacity="0.0"
     inkscape:pageshadow="2"
     inkscape:zoom="0.25"
     inkscape:cx="-663.18692"
     inkscape:cy="-392.37325"
     inkscape:document-units="px"
     inkscape:current-layer="layer1"
     showgrid="false"
     inkscape:window-width="1366"
     inkscape:window-height="702"
     inkscape:window-x="0"
     inkscape:window-y="27"
     inkscape:window-maximized="1">
    <inkscape:grid
       type="xygrid"
       id="grid3755"
       empspacing="5"
       visible="true"
       enabled="true"
       snapvisiblegridlinesonly="true" />
  </sodipodi:namedview>
  <metadata
     id="metadata7">
    <rdf:RDF>
      <cc:Work
         rdf:about="">
        <dc:format>image/svg+xml</dc:format>
        <dc:type
           rdf:resource="http://purl.org/dc/dcmitype/StillImage" />
        <dc:title />
      </cc:Work>
    </rdf:RDF>
  </metadata>
  <g
     inkscape:label="Layer 1"
     inkscape:groupmode="layer"
     id="layer1"
     transform="translate(0,-752.36218)">
    <path
       sodipodi:type="arc"
       style="fill:#ffffff;fill-opacity:1;stroke:none"
       id="path3759"
       sodipodi:cx="95"
       sodipodi:cy="55"
       sodipodi:rx="15"
       sodipodi:ry="15"
       d="m 110,55 a 15,15 0 1 1 -30,0 15,15 0 1 1 30,0 z"
       transform="matrix(2.4003881,0,0,2.4003881,-186.73816,841.00257)" />
    <path
       transform="matrix(4.0006472,0,0,4.0006472,-278.04597,743.77708)"
       d="m 110,55 a 15,15 0 1 1 -30,0 15,15 0 1 1 30,0 z"
       sodipodi:ry="15"
       sodipodi:rx="15"
       sodipodi:cy="55"
       sodipodi:cx="95"
       id="path3761"
       style="fill:#ffffff;fill-opacity:1;stroke:none"
       sodipodi:type="arc" />
    <path
       sodipodi:type="arc"
       style="fill:#ffffff;fill-opacity:1;stroke:none"
       id="path3763"
       sodipodi:cx="95"
       sodipodi:cy="55"
       sodipodi:rx="15"
       sodipodi:ry="15"
       d="m 110,55 a 15,15 0 1 1 -30,0 15,15 0 1 1 30,0 z"
       transform="matrix(3.2005182,0,0,3.2005182,-94.01625,797.70254)" />
    <path
       transform="matrix(2.4003881,0,0,2.4003881,-78.01359,855.79519)"
       d="m 110,55 a 15,15 0 1 1 -30,0 15,15 0 1 1 30,0 z"
       sodipodi:ry="15"
       sodipodi:rx="15"
       sodipodi:cy="55"
       sodipodi:cx="95"
       id="path3765"
       style="fill:#ffffff;fill-opacity:1;stroke:none"
       sodipodi:type="arc" />
    <path
       sodipodi:type="arc"
       style="fill:#ffffff;fill-opacity:1;stroke:none"
       id="path3767"
       sodipodi:cx="95"
       sodipodi:cy="55"
       sodipodi:rx="15"
       sodipodi:ry="15"
       d="m 110,55 a 15,15 0 1 1 -30,0 15,15 0 1 1 30,0 z"
       transform="matrix(2.4003881,0,0,2.4003881,-66.01165,795.78549)" />
    <path
       transform="matrix(1.6002587,0,0,1.6002587,111.65416,886.40502)"
       d="m 110,55 a 15,15 0 1 1 -30,0 15,15 0 1 1 30,0 z"
       sodipodi:ry="15"
       sodipodi:rx="15"
       sodipodi:cy="55"
       sodipodi:cx="95"
       id="path3769"
       style="fill:#ffffff;fill-opacity:1;stroke:none"
       sodipodi:type="arc" />
    <g
       id="g3765"
       transform="translate(-54,-140)">
      <path
         sodipodi:type="arc"
         style="fill:#ffffff;fill-opacity:1;stroke:none"
         id="path3771"
         sodipodi:cx="95"
         sodipodi:cy="55"
         sodipodi:rx="15"
         sodipodi:ry="15"
         d="m 110,55 c 0,8.284271 -6.71573,15 -15,15 -8.284271,0 -15,-6.715729 -15,-15 0,-8.284271 6.715729,-15 15,-15 8.28427,0 15,6.715729 15,15 z"
         transform="matrix(2.4003881,0,0,2.4003881,228.46637,848.98471)" />
      <path
         transform="matrix(4.0006472,0,0,4.0006472,232.35062,753.4531)"
         d="m 110,55 c 0,8.284271 -6.71573,15 -15,15 -8.284271,0 -15,-6.715729 -15,-15 0,-8.284271 6.715729,-15 15,-15 8.28427,0 15,6.715729 15,15 z"
         sodipodi:ry="15"
         sodipodi:rx="15"
         sodipodi:cy="55"
         sodipodi:cx="95"
         id="path3773"
         style="fill:#ffffff;fill-opacity:1;stroke:none"
         sodipodi:type="arc" />
      <path
         sodipodi:type="arc"
         style="fill:#ffffff;fill-opacity:1;stroke:none"
         id="path3775"
         sodipodi:cx="95"
         sodipodi:cy="55"
         sodipodi:rx="15"
         sodipodi:ry="15"
         d="m 110,55 c 0,8.284271 -6.71573,15 -15,15 -8.284271,0 -15,-6.715729 -15,-15 0,-8.284271 6.715729,-15 15,-15 8.28427,0 15,6.715729 15,15 z"
         transform="matrix(3.2005182,0,0,3.2005182,269.56124,818.55622)" />
      <path
         transform="matrix(2.4003881,0,0,2.4003881,315.2672,816.24865)"
         d="m 110,55 c 0,8.284271 -6.71573,15 -15,15 -8.284271,0 -15,-6.715729 -15,-15 0,-8.284271 6.715729,-15 15,-15 8.28427,0 15,6.715729 15,15 z"
         sodipodi:ry="15"
         sodipodi:rx="15"
         sodipodi:cy="55"
         sodipodi:cx="95"
         id="path3777"
         style="fill:#ffffff;fill-opacity:1;stroke:none"
         sodipodi:type="arc" />
      <path
         sodipodi:type="arc"
         style="fill:#ffffff;fill-opacity:1;stroke:none"
         id="path3779"
         sodipodi:cx="95"
         sodipodi:cy="55"
         sodipodi:rx="15"
         sodipodi:ry="15"
         d="m 110,55 c 0,8.284271 -6.71573,15 -15,15 -8.284271,0 -15,-6.715729 -15,-15 0,-8.284271 6.715729,-15 15,-15 8.28427,0 15,6.715729 15,15 z"
         transform="matrix(3.0227428,0,0,3.0227428,218.0742,822.15192)" />
      <path
         transform="matrix(2.3357687,0,0,2.3357687,455.71189,858.73818)"
         d="m 110,55 a 15,15 0 1 1 -30,0 15,15 0 1 1 30,0 z"
         sodipodi:ry="15"
         sodipodi:rx="15"
         sodipodi:cy="55"
         sodipodi:cx="95"
         id="path3781"
         style="fill:#ffffff;fill-opacity:1;stroke:none"
         sodipodi:type="arc" />
    </g>
  </g>
</svg>
