<?xml version="1.0" encoding="UTF-8" standalone="no"?>
<!-- Created with Inkscape (http://www.inkscape.org/) -->

<svg
   xmlns:dc="http://purl.org/dc/elements/1.1/"
   xmlns:cc="http://creativecommons.org/ns#"
   xmlns:rdf="http://www.w3.org/1999/02/22-rdf-syntax-ns#"
   xmlns:svg="http://www.w3.org/2000/svg"
   xmlns="http://www.w3.org/2000/svg"
   xmlns:xlink="http://www.w3.org/1999/xlink"
   xmlns:sodipodi="http://sodipodi.sourceforge.net/DTD/sodipodi-0.dtd"
   xmlns:inkscape="http://www.inkscape.org/namespaces/inkscape"
   width="500"
   height="150"
   id="svg2"
   version="1.1"
   inkscape:version="0.48.5 r10040"
   sodipodi:docname="grass.svg">
  <defs
     id="defs4" />
  <sodipodi:namedview
     id="base"
     pagecolor="#ffffff"
     bordercolor="#666666"
     borderopacity="1.0"
     inkscape:pageopacity="0.0"
     inkscape:pageshadow="2"
     inkscape:zoom="0.5"
     inkscape:cx="-255.84568"
     inkscape:cy="176.8118"
     inkscape:document-units="px"
     inkscape:current-layer="layer1"
     showgrid="true"
     inkscape:window-width="1366"
     inkscape:window-height="702"
     inkscape:window-x="0"
     inkscape:window-y="27"
     inkscape:window-maximized="1">
    <inkscape:grid
       type="xygrid"
       id="grid3773"
       empspacing="5"
       visible="true"
       enabled="true"
       snapvisiblegridlinesonly="true" />
  </sodipodi:namedview>
  <metadata
     id="metadata7">
    <rdf:RDF>
      <cc:Work
         rdf:about="">
        <dc:format>image/svg+xml</dc:format>
        <dc:type
           rdf:resource="http://purl.org/dc/dcmitype/StillImage" />
        <dc:title />
      </cc:Work>
    </rdf:RDF>
  </metadata>
  <g
     inkscape:label="Layer 1"
     inkscape:groupmode="layer"
     id="layer1"
     transform="translate(0,-902.36218)">
    <path
       sodipodi:type="arc"
       style="fill:#b6f088;fill-opacity:1;stroke:none"
       id="path2987"
       sodipodi:cx="-56.568542"
       sodipodi:cy="279.79694"
       sodipodi:rx="92.934036"
       sodipodi:ry="92.934036"
       d="m 36.365494,279.79694 c 0,51.32605 -41.6079855,92.93403 -92.934036,92.93403 -51.326048,0 -92.934038,-41.60798 -92.934038,-92.93403 0,-51.32605 41.60799,-92.93404 92.934038,-92.93404 51.3260505,0 92.934036,41.60799 92.934036,92.93404 z"
       transform="matrix(0.75322242,0,0,0.75322242,42.608695,841.61286)" />
    <path
       transform="matrix(0.40351201,0,0,0.40351201,77.826086,886.96076)"
       d="m 36.365494,279.79694 c 0,51.32605 -41.6079855,92.93403 -92.934036,92.93403 -51.326048,0 -92.934038,-41.60798 -92.934038,-92.93403 0,-51.32605 41.60799,-92.93404 92.934038,-92.93404 51.3260505,0 92.934036,41.60799 92.934036,92.93404 z"
       sodipodi:ry="92.934036"
       sodipodi:rx="92.934036"
       sodipodi:cy="279.79694"
       sodipodi:cx="-56.568542"
       id="path3757"
       style="fill:#b6f088;fill-opacity:1;stroke:none"
       sodipodi:type="arc" />
    <path
       sodipodi:type="arc"
       style="fill:#b6f088;fill-opacity:1;stroke:none"
       id="path3759"
       sodipodi:cx="-56.568542"
       sodipodi:cy="279.79694"
       sodipodi:rx="92.934036"
       sodipodi:ry="92.934036"
       d="m 36.365494,279.79694 c 0,51.32605 -41.6079855,92.93403 -92.934036,92.93403 -51.326048,0 -92.934038,-41.60798 -92.934038,-92.93403 0,-51.32605 41.60799,-92.93404 92.934038,-92.93404 51.3260505,0 92.934036,41.60799 92.934036,92.93404 z"
       transform="matrix(0.53850734,0,0,0.53850734,215.46258,856.73514)" />
    <path
       transform="matrix(0.70947135,0,0,0.70947135,312.0881,808.52938)"
       d="m 36.365494,279.79694 c 0,51.32605 -41.6079855,92.93403 -92.934036,92.93403 -51.326048,0 -92.934038,-41.60798 -92.934038,-92.93403 0,-51.32605 41.60799,-92.93404 92.934038,-92.93404 51.3260505,0 92.934036,41.60799 92.934036,92.93404 z"
       sodipodi:ry="92.934036"
       sodipodi:rx="92.934036"
       sodipodi:cy="279.79694"
       sodipodi:cx="-56.568542"
       id="path3761"
       style="fill:#b6f088;fill-opacity:1;stroke:none"
       sodipodi:type="arc" />
    <path
       sodipodi:type="arc"
       style="fill:#b6f088;fill-opacity:1;stroke:none"
       id="path3763"
       sodipodi:cx="-56.568542"
       sodipodi:cy="279.79694"
       sodipodi:rx="92.934036"
       sodipodi:ry="92.934036"
       d="m 36.365494,279.79694 c 0,51.32605 -41.6079855,92.93403 -92.934036,92.93403 -51.326048,0 -92.934038,-41.60798 -92.934038,-92.93403 0,-51.32605 41.60799,-92.93404 92.934038,-92.93404 51.3260505,0 92.934036,41.60799 92.934036,92.93404 z"
       transform="matrix(0.50233518,0,0,0.50233518,388.41637,838.49437)" />
    <path
       transform="matrix(0.44843753,0,0,0.44843753,455.36746,868.56584)"
       d="m 36.365494,279.79694 c 0,51.32605 -41.6079855,92.93403 -92.934036,92.93403 -51.326048,0 -92.934038,-41.60798 -92.934038,-92.93403 0,-51.32605 41.60799,-92.93404 92.934038,-92.93404 51.3260505,0 92.934036,41.60799 92.934036,92.93404 z"
       sodipodi:ry="92.934036"
       sodipodi:rx="92.934036"
       sodipodi:cy="279.79694"
       sodipodi:cx="-56.568542"
       id="path3765"
       style="fill:#b6f088;fill-opacity:1;stroke:none"
       sodipodi:type="arc" />
    <use
       x="0"
       y="0"
       xlink:href="#path2987"
       id="use3767"
       transform="translate(500,-4.9572559e-6)"
       width="500"
       height="300"
       style="fill:#b6f088;fill-opacity:1" />
    <path
       sodipodi:type="arc"
       style="fill:#b6f088;fill-opacity:1;stroke:none"
       id="path3769"
       sodipodi:cx="-56.568542"
       sodipodi:cy="279.79694"
       sodipodi:rx="92.934036"
       sodipodi:ry="92.934036"
       d="m 36.365494,279.79694 c 0,51.32605 -41.6079855,92.93403 -92.934036,92.93403 -51.326048,0 -92.934038,-41.60798 -92.934038,-92.93403 0,-51.32605 41.60799,-92.93404 92.934038,-92.93404 51.3260505,0 92.934036,41.60799 92.934036,92.93404 z"
       transform="matrix(0.37661121,0,0,0.37661121,131.30435,901.98752)" />
    <path
       sodipodi:type="arc"
       style="fill:#b6f088;fill-opacity:1;stroke:none"
       id="path3771"
       sodipodi:cx="-56.568542"
       sodipodi:cy="279.79694"
       sodipodi:rx="92.934036"
       sodipodi:ry="92.934036"
       d="m 36.365494,279.79694 c 0,51.32605 -41.6079855,92.93403 -92.934036,92.93403 -51.326048,0 -92.934038,-41.60798 -92.934038,-92.93403 0,-51.32605 41.60799,-92.93404 92.934038,-92.93404 51.3260505,0 92.934036,41.60799 92.934036,92.93404 z"
       transform="matrix(0.70947135,0,0,0.70947135,394.0881,851.52938)" />
    <path
       transform="matrix(0.70947135,0,0,0.70947135,151.0678,863.85427)"
       d="m 36.365494,279.79694 c 0,51.32605 -41.6079855,92.93403 -92.934036,92.93403 -51.326048,0 -92.934038,-41.60798 -92.934038,-92.93403 0,-51.32605 41.60799,-92.93404 92.934038,-92.93404 51.3260505,0 92.934036,41.60799 92.934036,92.93404 z"
       sodipodi:ry="92.934036"
       sodipodi:rx="92.934036"
       sodipodi:cy="279.79694"
       sodipodi:cx="-56.568542"
       id="path2992"
       style="fill:#b6f088;fill-opacity:1;stroke:none"
       sodipodi:type="arc" />
    <path
       sodipodi:type="arc"
       style="fill:#b6f088;fill-opacity:1;stroke:none"
       id="path2994"
       sodipodi:cx="-56.568542"
       sodipodi:cy="279.79694"
       sodipodi:rx="92.934036"
       sodipodi:ry="92.934036"
       d="m 36.365494,279.79694 c 0,51.32605 -41.6079855,92.93403 -92.934036,92.93403 -51.326048,0 -92.934038,-41.60798 -92.934038,-92.93403 0,-51.32605 41.60799,-92.93404 92.934038,-92.93404 51.3260505,0 92.934036,41.60799 92.934036,92.93404 z"
       transform="matrix(0.70947135,0,0,0.70947135,249.19972,858.85427)" />
    <path
       transform="matrix(0.70947135,0,0,0.70947135,469.19972,848.85427)"
       d="m 36.365494,279.79694 c 0,51.32605 -41.6079855,92.93403 -92.934036,92.93403 -51.326048,0 -92.934038,-41.60798 -92.934038,-92.93403 0,-51.32605 41.60799,-92.93404 92.934038,-92.93404 51.3260505,0 92.934036,41.60799 92.934036,92.93404 z"
       sodipodi:ry="92.934036"
       sodipodi:rx="92.934036"
       sodipodi:cy="279.79694"
       sodipodi:cx="-56.568542"
       id="path2996"
       style="fill:#b6f088;fill-opacity:1;stroke:none"
       sodipodi:type="arc" />
  </g>
</svg>
