<?xml version="1.0" encoding="UTF-8" standalone="no"?>
<!-- Created with Inkscape (http://www.inkscape.org/) -->

<svg
   xmlns:dc="http://purl.org/dc/elements/1.1/"
   xmlns:cc="http://creativecommons.org/ns#"
   xmlns:rdf="http://www.w3.org/1999/02/22-rdf-syntax-ns#"
   xmlns:svg="http://www.w3.org/2000/svg"
   xmlns="http://www.w3.org/2000/svg"
   xmlns:xlink="http://www.w3.org/1999/xlink"
   xmlns:sodipodi="http://sodipodi.sourceforge.net/DTD/sodipodi-0.dtd"
   xmlns:inkscape="http://www.inkscape.org/namespaces/inkscape"
   width="500"
   height="100"
   id="svg2"
   version="1.1"
   inkscape:version="0.48.5 r10040"
   sodipodi:docname="light-grass.svg">
  <defs
     id="defs4" />
  <sodipodi:namedview
     id="base"
     pagecolor="#ffffff"
     bordercolor="#666666"
     borderopacity="1.0"
     inkscape:pageopacity="0.0"
     inkscape:pageshadow="2"
     inkscape:zoom="2.8284271"
     inkscape:cx="117.3698"
     inkscape:cy="-1.271936"
     inkscape:document-units="px"
     inkscape:current-layer="layer1"
     showgrid="false"
     inkscape:window-width="1920"
     inkscape:window-height="1014"
     inkscape:window-x="0"
     inkscape:window-y="27"
     inkscape:window-maximized="1"
     inkscape:snap-global="true"
     inkscape:snap-bbox="true">
    <inkscape:grid
       type="xygrid"
       id="grid3773"
       empspacing="5"
       visible="true"
       enabled="true"
       snapvisiblegridlinesonly="true" />
  </sodipodi:namedview>
  <metadata
     id="metadata7">
    <rdf:RDF>
      <cc:Work
         rdf:about="">
        <dc:format>image/svg+xml</dc:format>
        <dc:type
           rdf:resource="http://purl.org/dc/dcmitype/StillImage" />
        <dc:title />
      </cc:Work>
    </rdf:RDF>
  </metadata>
  <g
     inkscape:label="Layer 1"
     inkscape:groupmode="layer"
     id="layer1"
     transform="translate(0,-952.36218)">
    <path
       sodipodi:type="arc"
       style="fill:#d4f3bd;fill-opacity:1;stroke:none"
       id="path2987"
       sodipodi:cx="-56.568542"
       sodipodi:cy="279.79694"
       sodipodi:rx="92.934036"
       sodipodi:ry="92.934036"
       d="m 36.365494,279.79694 a 92.934036,92.934036 0 1 1 -185.868074,0 92.934036,92.934036 0 1 1 185.868074,0 z"
       transform="matrix(0.48421479,0,0,0.48421479,27.391325,886.88033)" />
    <path
       transform="matrix(0.40351201,0,0,0.40351201,77.826086,896.96072)"
       d="m 36.365494,279.79694 c 0,51.32605 -41.6079855,92.93403 -92.934036,92.93403 -51.326048,0 -92.934038,-41.60798 -92.934038,-92.93403 0,-51.32605 41.60799,-92.93404 92.934038,-92.93404 51.3260505,0 92.934036,41.60799 92.934036,92.93404 z"
       sodipodi:ry="92.934036"
       sodipodi:rx="92.934036"
       sodipodi:cy="279.79694"
       sodipodi:cx="-56.568542"
       id="path3757"
       style="fill:#d4f3bd;fill-opacity:1;stroke:none"
       sodipodi:type="arc" />
    <path
       sodipodi:type="arc"
       style="fill:#d4f3bd;fill-opacity:1;stroke:none"
       id="path3759"
       sodipodi:cx="-56.568542"
       sodipodi:cy="279.79694"
       sodipodi:rx="92.934036"
       sodipodi:ry="92.934036"
       d="m 36.365494,279.79694 c 0,51.32605 -41.6079855,92.93403 -92.934036,92.93403 -51.326048,0 -92.934038,-41.60798 -92.934038,-92.93403 0,-51.32605 41.60799,-92.93404 92.934038,-92.93404 51.3260505,0 92.934036,41.60799 92.934036,92.93404 z"
       transform="matrix(0.48470577,0,0,0.48470577,217.4191,871.78861)" />
    <path
       transform="matrix(0.51698669,0,0,0.51698669,298.37109,868.14332)"
       d="m 36.365494,279.79694 c 0,51.32605 -41.6079855,92.93403 -92.934036,92.93403 -51.326048,0 -92.934038,-41.60798 -92.934038,-92.93403 0,-51.32605 41.60799,-92.93404 92.934038,-92.93404 51.3260505,0 92.934036,41.60799 92.934036,92.93404 z"
       sodipodi:ry="92.934036"
       sodipodi:rx="92.934036"
       sodipodi:cy="279.79694"
       sodipodi:cx="-56.568542"
       id="path3761"
       style="fill:#d4f3bd;fill-opacity:1;stroke:none"
       sodipodi:type="arc" />
    <path
       sodipodi:type="arc"
       style="fill:#d4f3bd;fill-opacity:1;stroke:none"
       id="path3763"
       sodipodi:cx="-56.568542"
       sodipodi:cy="279.79694"
       sodipodi:rx="92.934036"
       sodipodi:ry="92.934036"
       d="m 36.365494,279.79694 c 0,51.32605 -41.6079855,92.93403 -92.934036,92.93403 -51.326048,0 -92.934038,-41.60798 -92.934038,-92.93403 0,-51.32605 41.60799,-92.93404 92.934038,-92.93404 51.3260505,0 92.934036,41.60799 92.934036,92.93404 z"
       transform="matrix(0.28712876,0,0,0.28712876,396.24246,908.70843)" />
    <path
       transform="matrix(0.44843753,0,0,0.44843753,465.36746,878.5658)"
       d="m 36.365494,279.79694 c 0,51.32605 -41.6079855,92.93403 -92.934036,92.93403 -51.326048,0 -92.934038,-41.60798 -92.934038,-92.93403 0,-51.32605 41.60799,-92.93404 92.934038,-92.93404 51.3260505,0 92.934036,41.60799 92.934036,92.93404 z"
       sodipodi:ry="92.934036"
       sodipodi:rx="92.934036"
       sodipodi:cy="279.79694"
       sodipodi:cx="-56.568542"
       id="path3765"
       style="fill:#d4f3bd;fill-opacity:1;stroke:none"
       sodipodi:type="arc" />
    <use
       x="0"
       y="0"
       xlink:href="#path2987"
       id="use3767"
       transform="translate(500,-4.526083e-6)"
       width="500"
       height="300"
       style="fill:#d4f3bd;fill-opacity:1" />
    <path
       sodipodi:type="arc"
       style="fill:#d4f3bd;fill-opacity:1;stroke:none"
       id="path3769"
       sodipodi:cx="-56.568542"
       sodipodi:cy="279.79694"
       sodipodi:rx="92.934036"
       sodipodi:ry="92.934036"
       d="m 36.365494,279.79694 c 0,51.32605 -41.6079855,92.93403 -92.934036,92.93403 -51.326048,0 -92.934038,-41.60798 -92.934038,-92.93403 0,-51.32605 41.60799,-92.93404 92.934038,-92.93404 51.3260505,0 92.934036,41.60799 92.934036,92.93404 z"
       transform="matrix(0.37661121,0,0,0.37661121,139.18303,901.98748)" />
    <path
       sodipodi:type="arc"
       style="fill:#d4f3bd;fill-opacity:1;stroke:none"
       id="path3771"
       sodipodi:cx="-56.568542"
       sodipodi:cy="279.79694"
       sodipodi:rx="92.934036"
       sodipodi:ry="92.934036"
       d="m 36.365494,279.79694 a 92.934036,92.934036 0 1 1 -185.868074,0 92.934036,92.934036 0 1 1 185.868074,0 z"
       transform="matrix(0.70947135,0,0,0.70947135,381.54797,869.78827)" />
    <path
       transform="matrix(0.70947135,0,0,0.70947135,135.24458,859.79357)"
       d="m 36.365494,279.79694 a 92.934036,92.934036 0 1 1 -185.868074,0 92.934036,92.934036 0 1 1 185.868074,0 z"
       sodipodi:ry="92.934036"
       sodipodi:rx="92.934036"
       sodipodi:cy="279.79694"
       sodipodi:cx="-56.568542"
       id="path2992"
       style="fill:#d4f3bd;fill-opacity:1;stroke:none"
       sodipodi:type="arc" />
    <path
       sodipodi:type="arc"
       style="fill:#d4f3bd;fill-opacity:1;stroke:none"
       id="path2994"
       sodipodi:cx="-56.568542"
       sodipodi:cy="279.79694"
       sodipodi:rx="92.934036"
       sodipodi:ry="92.934036"
       d="m 36.365494,279.79694 a 92.934036,92.934036 0 1 1 -185.868074,0 92.934036,92.934036 0 1 1 185.868074,0 z"
       transform="matrix(0.70947135,0,0,0.70947135,251.32104,868.50068)" />
    <path
       transform="matrix(0.70947135,0,0,0.70947135,469.19972,858.85423)"
       d="m 36.365494,279.79694 c 0,51.32605 -41.6079855,92.93403 -92.934036,92.93403 -51.326048,0 -92.934038,-41.60798 -92.934038,-92.93403 0,-51.32605 41.60799,-92.93404 92.934038,-92.93404 51.3260505,0 92.934036,41.60799 92.934036,92.93404 z"
       sodipodi:ry="92.934036"
       sodipodi:rx="92.934036"
       sodipodi:cy="279.79694"
       sodipodi:cx="-56.568542"
       id="path2996"
       style="fill:#d4f3bd;fill-opacity:1;stroke:none"
       sodipodi:type="arc" />
    <path
       transform="matrix(0.28712876,0,0,0.28712876,356.24246,928.70843)"
       d="m 36.365494,279.79694 c 0,51.32605 -41.6079855,92.93403 -92.934036,92.93403 -51.326048,0 -92.934038,-41.60798 -92.934038,-92.93403 0,-51.32605 41.60799,-92.93404 92.934038,-92.93404 51.3260505,0 92.934036,41.60799 92.934036,92.93404 z"
       sodipodi:ry="92.934036"
       sodipodi:rx="92.934036"
       sodipodi:cy="279.79694"
       sodipodi:cx="-56.568542"
       id="path2995"
       style="fill:#d4f3bd;fill-opacity:1;stroke:none"
       sodipodi:type="arc" />
  </g>
</svg>
