<?xml version="1.0" encoding="UTF-8" standalone="no"?>
<!-- Created with Inkscape (http://www.inkscape.org/) -->

<svg
   xmlns:dc="http://purl.org/dc/elements/1.1/"
   xmlns:cc="http://creativecommons.org/ns#"
   xmlns:rdf="http://www.w3.org/1999/02/22-rdf-syntax-ns#"
   xmlns:svg="http://www.w3.org/2000/svg"
   xmlns="http://www.w3.org/2000/svg"
   xmlns:xlink="http://www.w3.org/1999/xlink"
   xmlns:sodipodi="http://sodipodi.sourceforge.net/DTD/sodipodi-0.dtd"
   xmlns:inkscape="http://www.inkscape.org/namespaces/inkscape"
   width="112"
   height="154"
   id="svg2"
   version="1.1"
   inkscape:version="0.48.5 r10040"
   sodipodi:docname="logo.svg">
  <defs
     id="defs4" />
  <sodipodi:namedview
     id="base"
     pagecolor="#ffffff"
     bordercolor="#666666"
     borderopacity="1.0"
     inkscape:pageopacity="0.0"
     inkscape:pageshadow="2"
     inkscape:zoom="2.0000001"
     inkscape:cx="90.989072"
     inkscape:cy="31.57438"
     inkscape:document-units="px"
     inkscape:current-layer="layer1"
     showgrid="true"
     inkscape:snap-bbox="true"
     inkscape:snap-bbox-edge-midpoints="true"
     inkscape:bbox-nodes="true"
     inkscape:bbox-paths="true"
     inkscape:snap-bbox-midpoints="true"
     showborder="true"
     inkscape:window-width="1366"
     inkscape:window-height="702"
     inkscape:window-x="0"
     inkscape:window-y="27"
     inkscape:window-maximized="1"
     showguides="true"
     inkscape:guide-bbox="true">
    <inkscape:grid
       type="xygrid"
       id="grid2985"
       empspacing="4"
       visible="true"
       enabled="true"
       snapvisiblegridlinesonly="true" />
  </sodipodi:namedview>
  <metadata
     id="metadata7">
    <rdf:RDF>
      <cc:Work
         rdf:about="">
        <dc:format>image/svg+xml</dc:format>
        <dc:type
           rdf:resource="http://purl.org/dc/dcmitype/StillImage" />
        <dc:title />
      </cc:Work>
    </rdf:RDF>
  </metadata>
  <g
     inkscape:label="Layer 1"
     inkscape:groupmode="layer"
     id="layer1"
     transform="translate(0,-898.3622)">
    <g
       id="g3849"
       transform="translate(-8,-2.677e-4)">
      <path
         transform="matrix(7.3333334,0,0,7.3333334,2.3333332,892.6958)"
         d="m 15.5,9.5 c 0,3.313708 -2.686292,6 -6,6 -3.3137085,0 -6,-2.686292 -6,-6 0,-3.3137085 2.6862915,-6 6,-6 3.313708,0 6,2.6862915 6,6 z"
         sodipodi:ry="6"
         sodipodi:rx="6"
         sodipodi:cy="9.5"
         sodipodi:cx="9.5"
         id="path2989"
         style="fill:#81d147;fill-opacity:1;stroke:none"
         sodipodi:type="arc" />
      <path
         sodipodi:type="arc"
         style="fill:#81d147;fill-opacity:1;stroke:none"
         id="path3763"
         sodipodi:cx="9.5"
         sodipodi:cy="3.5"
         sodipodi:rx="2.5"
         sodipodi:ry="2.5"
         d="M 12,3.5 C 12,4.8807119 10.880712,6 9.5,6 8.1192881,6 7,4.8807119 7,3.5 7,2.1192881 8.1192881,1 9.5,1 10.880712,1 12,2.1192881 12,3.5 z"
         transform="matrix(8,0,0,8,-4,890.3622)" />
      <use
         height="16"
         width="16"
         transform="translate(-44,44)"
         id="use3765"
         xlink:href="#path3763"
         y="0"
         x="0" />
      <path
         transform="matrix(8,0,0,8,16,874.3622)"
         d="M 8,9 C 8,9.5522847 7.5522847,10 7,10 6.4477153,10 6,9.5522847 6,9 6,8.4477153 6.4477153,8 7,8 7.5522847,8 8,8.4477153 8,9 z"
         sodipodi:ry="1"
         sodipodi:rx="1"
         sodipodi:cy="9"
         sodipodi:cx="7"
         id="path3767"
         style="fill:#ffffff;fill-opacity:1;stroke:none"
         sodipodi:type="arc" />
      <use
         height="16"
         width="16"
         transform="translate(-16,16)"
         id="use3769"
         xlink:href="#path3767"
         y="0"
         x="0" />
    </g>
    <g
       id="g3827"
       style="stroke:#81d147;stroke-opacity:1"
       transform="translate(-12,18)">
      <path
         sodipodi:nodetypes="cc"
         transform="translate(0,860.3622)"
         inkscape:connector-curvature="0"
         id="path3789"
         d="m 16,140 0,24"
         style="fill:none;stroke:#81d147;stroke-width:4;stroke-linecap:round;stroke-linejoin:round;stroke-miterlimit:4;stroke-opacity:1;stroke-dasharray:none" />
      <path
         transform="translate(0,860.3622)"
         d="m 32,156 c 0,4.41828 -3.581722,8 -8,8 -4.418278,0 -8,-3.58172 -8,-8 0,-4.41828 3.581722,-8 8,-8 4.418278,0 8,3.58172 8,8 z"
         sodipodi:ry="8"
         sodipodi:rx="8"
         sodipodi:cy="156"
         sodipodi:cx="24"
         id="path3791"
         style="fill:none;stroke:#81d147;stroke-width:4;stroke-miterlimit:4;stroke-opacity:1;stroke-dasharray:none"
         sodipodi:type="arc" />
      <g
         transform="translate(-2,0)"
         id="g3813"
         style="stroke:#81d147;stroke-opacity:1">
        <path
           transform="translate(24,860.3622)"
           d="m 32,156 c 0,4.41828 -3.581722,8 -8,8 -4.418278,0 -8,-3.58172 -8,-8 0,-4.41828 3.581722,-8 8,-8 4.418278,0 8,3.58172 8,8 z"
           sodipodi:ry="8"
           sodipodi:rx="8"
           sodipodi:cy="156"
           sodipodi:cx="24"
           id="path3793"
           style="fill:none;stroke:#81d147;stroke-width:4;stroke-miterlimit:4;stroke-opacity:1;stroke-dasharray:none"
           sodipodi:type="arc" />
        <path
           sodipodi:nodetypes="cc"
           inkscape:connector-curvature="0"
           id="path3795"
           d="m 56,1008.3622 0,16"
           style="fill:none;stroke:#81d147;stroke-width:4;stroke-linecap:round;stroke-linejoin:round;stroke-miterlimit:4;stroke-opacity:1;stroke-dasharray:none" />
      </g>
      <path
         sodipodi:nodetypes="cccc"
         inkscape:connector-curvature="0"
         id="path3797"
         d="m 60,1008.3622 16,0 -16,16 16,0"
         style="fill:none;stroke:#81d147;stroke-width:4;stroke-linecap:round;stroke-linejoin:round;stroke-miterlimit:4;stroke-opacity:1;stroke-dasharray:none" />
      <g
         transform="translate(-6,0)"
         id="g3817"
         style="stroke:#81d147;stroke-opacity:1">
        <path
           sodipodi:type="arc"
           style="fill:none;stroke:#81d147;stroke-width:4;stroke-miterlimit:4;stroke-opacity:1;stroke-dasharray:none"
           id="path3799"
           sodipodi:cx="24"
           sodipodi:cy="156"
           sodipodi:rx="8"
           sodipodi:ry="8"
           d="m 32,156 c 0,4.41828 -3.581722,8 -8,8 -4.418278,0 -8,-3.58172 -8,-8 0,-4.41828 3.581722,-8 8,-8 4.418278,0 8,3.58172 8,8 z"
           transform="translate(72,860.3622)" />
        <path
           style="fill:none;stroke:#81d147;stroke-width:4;stroke-linecap:round;stroke-linejoin:round;stroke-miterlimit:4;stroke-opacity:1;stroke-dasharray:none"
           d="m 104,1008.3622 0,16"
           id="path3801"
           inkscape:connector-curvature="0"
           sodipodi:nodetypes="cc" />
        <path
           transform="translate(72,868.3622)"
           d="m 32,156 c 0,4.41828 -3.581722,8 -8,8"
           sodipodi:ry="8"
           sodipodi:rx="8"
           sodipodi:cy="156"
           sodipodi:cx="24"
           id="path3803"
           style="fill:none;stroke:#81d147;stroke-width:4;stroke-linecap:round;stroke-linejoin:round;stroke-miterlimit:4;stroke-opacity:1;stroke-dasharray:none"
           sodipodi:type="arc"
           sodipodi:start="0"
           sodipodi:end="1.5707963"
           sodipodi:open="true" />
      </g>
      <g
         transform="translate(-6,0)"
         id="g3822"
         style="stroke:#81d147;stroke-opacity:1">
        <path
           sodipodi:type="arc"
           style="fill:none;stroke:#81d147;stroke-width:4;stroke-linecap:round;stroke-linejoin:round;stroke-miterlimit:4;stroke-opacity:1;stroke-dasharray:none"
           id="path3805"
           sodipodi:cx="24"
           sodipodi:cy="156"
           sodipodi:rx="8"
           sodipodi:ry="8"
           d="m 32,156 c 0,4.41828 -3.581722,8 -8,8 -4.418278,0 -8,-3.58172 -8,-8 0,0 0,0 0,0"
           transform="translate(94,860.3622)"
           sodipodi:start="0"
           sodipodi:end="3.1415927"
           sodipodi:open="true" />
        <path
           style="fill:none;stroke:#81d147;stroke-width:4;stroke-linecap:round;stroke-linejoin:round;stroke-miterlimit:4;stroke-opacity:1;stroke-dasharray:none"
           d="m 126,1008.3622 0,16"
           id="path3807"
           inkscape:connector-curvature="0"
           sodipodi:nodetypes="cc" />
        <path
           sodipodi:nodetypes="cc"
           inkscape:connector-curvature="0"
           id="path3809"
           d="m 110,1008.3622 0,8"
           style="fill:none;stroke:#81d147;stroke-width:4;stroke-linecap:round;stroke-linejoin:round;stroke-miterlimit:4;stroke-opacity:1;stroke-dasharray:none" />
      </g>
    </g>
  </g>
</svg>
