<?xml version="1.0" encoding="UTF-8" standalone="no"?>
<!-- Created with Inkscape (http://www.inkscape.org/) -->

<svg
   xmlns:dc="http://purl.org/dc/elements/1.1/"
   xmlns:cc="http://creativecommons.org/ns#"
   xmlns:rdf="http://www.w3.org/1999/02/22-rdf-syntax-ns#"
   xmlns:svg="http://www.w3.org/2000/svg"
   xmlns="http://www.w3.org/2000/svg"
   xmlns:sodipodi="http://sodipodi.sourceforge.net/DTD/sodipodi-0.dtd"
   xmlns:inkscape="http://www.inkscape.org/namespaces/inkscape"
   width="40"
   height="40"
   id="svg2"
   version="1.1"
   inkscape:version="0.48.5 r10040"
   sodipodi:docname="privacy-me-active.svg">
  <defs
     id="defs4" />
  <sodipodi:namedview
     id="base"
     pagecolor="#ffffff"
     bordercolor="#666666"
     borderopacity="1.0"
     inkscape:pageopacity="0.0"
     inkscape:pageshadow="2"
     inkscape:zoom="4"
     inkscape:cx="-30.615383"
     inkscape:cy="30.68955"
     inkscape:document-units="px"
     inkscape:current-layer="layer1"
     showgrid="true"
     inkscape:window-width="1366"
     inkscape:window-height="702"
     inkscape:window-x="0"
     inkscape:window-y="27"
     inkscape:window-maximized="1">
    <inkscape:grid
       type="xygrid"
       id="grid3004"
       empspacing="5"
       visible="true"
       enabled="true"
       snapvisiblegridlinesonly="true"
       spacingx="0.5px"
       spacingy="0.5px" />
  </sodipodi:namedview>
  <metadata
     id="metadata7">
    <rdf:RDF>
      <cc:Work
         rdf:about="">
        <dc:format>image/svg+xml</dc:format>
        <dc:type
           rdf:resource="http://purl.org/dc/dcmitype/StillImage" />
        <dc:title />
      </cc:Work>
    </rdf:RDF>
  </metadata>
  <g
     inkscape:label="Layer 1"
     inkscape:groupmode="layer"
     id="layer1"
     transform="translate(0,-1012.3622)">
    <path
       style="fill:#ffffff;fill-opacity:1;stroke:none"
       d="m 14,1027.3622 0,3 -2,0 c -0.5,0 -1,0.5 -1,1 l 0,10 c 0,0.5 0.5,1 1,1 l 16,0 c 0.5,0 1,-0.5 1,-1 l 0,-10 c 0,-0.5 -0.5,-1 -1,-1 l -2,0 0,-3 c 0,-3 -3,-6 -6,-6 -3,0 -6,3 -6,6 z m 6,-4 c 2,0 4,2 4,4 l 0,3 -8,0 0,-3 c 0,-2 2,-4 4,-4 z m 0,10 c 1,0 2,1 2,2 0,1 -1,1.0408 -1,2 l 0,2 -2,0 0,-2 c 0,-0.9592 -1,-1 -1,-2 0,-1 1,-2 2,-2 z"
       id="path3006-3"
       inkscape:connector-curvature="0"
       sodipodi:nodetypes="sscsssssssscsscssscccssscscc" />
  </g>
</svg>
