<?xml version="1.0" encoding="UTF-8" standalone="no"?>
<!-- Created with Inkscape (http://www.inkscape.org/) -->

<svg
   xmlns:dc="http://purl.org/dc/elements/1.1/"
   xmlns:cc="http://creativecommons.org/ns#"
   xmlns:rdf="http://www.w3.org/1999/02/22-rdf-syntax-ns#"
   xmlns:svg="http://www.w3.org/2000/svg"
   xmlns="http://www.w3.org/2000/svg"
   xmlns:xlink="http://www.w3.org/1999/xlink"
   xmlns:sodipodi="http://sodipodi.sourceforge.net/DTD/sodipodi-0.dtd"
   xmlns:inkscape="http://www.inkscape.org/namespaces/inkscape"
   width="64"
   height="64"
   id="svg2"
   version="1.1"
   inkscape:version="0.48.5 r10040"
   sodipodi:docname="user-online.svg">
  <defs
     id="defs4" />
  <sodipodi:namedview
     id="base"
     pagecolor="#ffffff"
     bordercolor="#666666"
     borderopacity="1.0"
     inkscape:pageopacity="0.0"
     inkscape:pageshadow="2"
     inkscape:zoom="5.6"
     inkscape:cx="4.0135299"
     inkscape:cy="15.80171"
     inkscape:document-units="px"
     inkscape:current-layer="layer1"
     showgrid="true"
     inkscape:window-width="1366"
     inkscape:window-height="702"
     inkscape:window-x="0"
     inkscape:window-y="27"
     inkscape:window-maximized="1">
    <inkscape:grid
       type="xygrid"
       id="grid3961"
       empspacing="5"
       visible="true"
       enabled="true"
       snapvisiblegridlinesonly="true" />
  </sodipodi:namedview>
  <metadata
     id="metadata7">
    <rdf:RDF>
      <cc:Work
         rdf:about="">
        <dc:format>image/svg+xml</dc:format>
        <dc:type
           rdf:resource="http://purl.org/dc/dcmitype/StillImage" />
        <dc:title />
      </cc:Work>
    </rdf:RDF>
  </metadata>
  <g
     inkscape:label="Layer 1"
     inkscape:groupmode="layer"
     id="layer1"
     transform="translate(0,-988.3622)">
    <g
       id="layer1-0"
       inkscape:label="Layer 1"
       transform="matrix(1.25,0,0,1.25,12,-275.09055)">
      <g
         transform="matrix(2,0,0,2,0,-1052.3622)"
         id="g3760">
        <path
           sodipodi:type="arc"
           style="fill:#81d147;fill-opacity:1;stroke:none"
           id="path2989"
           sodipodi:cx="9.5"
           sodipodi:cy="9.5"
           sodipodi:rx="5.5"
           sodipodi:ry="5.5"
           d="M 15,9.5 C 15,12.537566 12.537566,15 9.5,15 6.4624339,15 4,12.537566 4,9.5 4,6.4624339 6.4624339,4 9.5,4 12.537566,4 15,6.4624339 15,9.5 z"
           transform="translate(-0.5,1035.8622)" />
        <path
           transform="translate(-0.5,1036.3622)"
           d="M 12,3.5 C 12,4.8807119 10.880712,6 9.5,6 8.1192881,6 7,4.8807119 7,3.5 7,2.1192881 8.1192881,1 9.5,1 10.880712,1 12,2.1192881 12,3.5 z"
           sodipodi:ry="2.5"
           sodipodi:rx="2.5"
           sodipodi:cy="3.5"
           sodipodi:cx="9.5"
           id="path3763"
           style="fill:#81d147;fill-opacity:1;stroke:none"
           sodipodi:type="arc" />
        <use
           x="0"
           y="0"
           xlink:href="#path3763"
           id="use3765"
           transform="translate(-5.5,5.5)"
           width="16"
           height="16" />
        <path
           sodipodi:type="arc"
           style="fill:#ffffff;fill-opacity:1;stroke:none"
           id="path3767"
           sodipodi:cx="7"
           sodipodi:cy="9"
           sodipodi:rx="1"
           sodipodi:ry="1"
           d="M 8,9 C 8,9.5522847 7.5522847,10 7,10 6.4477153,10 6,9.5522847 6,9 6,8.4477153 6.4477153,8 7,8 7.5522847,8 8,8.4477153 8,9 z"
           transform="translate(2,1034.3622)" />
        <use
           x="0"
           y="0"
           xlink:href="#path3767"
           id="use3769"
           transform="translate(-2,2)"
           width="16"
           height="16" />
        <rect
           style="fill:none;stroke:none"
           id="rect2990"
           width="16"
           height="16"
           x="0"
           y="0"
           transform="translate(0,1036.3622)" />
      </g>
    </g>
  </g>
</svg>
