<?xml version="1.0" encoding="UTF-8" standalone="no"?>
<!-- Created with Inkscape (http://www.inkscape.org/) -->

<svg
   xmlns:dc="http://purl.org/dc/elements/1.1/"
   xmlns:cc="http://creativecommons.org/ns#"
   xmlns:rdf="http://www.w3.org/1999/02/22-rdf-syntax-ns#"
   xmlns:svg="http://www.w3.org/2000/svg"
   xmlns="http://www.w3.org/2000/svg"
   version="1.1"
   width="700"
   height="300"
   id="svg2">
  <defs
     id="defs4" />
  <metadata
     id="metadata7">
    <rdf:RDF>
      <cc:Work
         rdf:about="">
        <dc:format>image/svg+xml</dc:format>
        <dc:type
           rdf:resource="http://purl.org/dc/dcmitype/StillImage" />
        <dc:title />
      </cc:Work>
    </rdf:RDF>
  </metadata>
  <g
     transform="translate(0,-752.36218)"
     id="layer1">
    <path
       d="m 110,55 a 15,15 0 1 1 -30,0 15,15 0 1 1 30,0 z"
       transform="matrix(2.4003881,0,0,2.4003881,-186.73816,841.00257)"
       id="path3759"
       style="fill:#ffffff;fill-opacity:1;stroke:none" />
    <path
       d="m 110,55 a 15,15 0 1 1 -30,0 15,15 0 1 1 30,0 z"
       transform="matrix(4.0006472,0,0,4.0006472,-278.04597,743.77708)"
       id="path3761"
       style="fill:#ffffff;fill-opacity:1;stroke:none" />
    <path
       d="m 110,55 a 15,15 0 1 1 -30,0 15,15 0 1 1 30,0 z"
       transform="matrix(3.2005182,0,0,3.2005182,-94.01625,797.70254)"
       id="path3763"
       style="fill:#ffffff;fill-opacity:1;stroke:none" />
    <path
       d="m 110,55 a 15,15 0 1 1 -30,0 15,15 0 1 1 30,0 z"
       transform="matrix(2.4003881,0,0,2.4003881,-78.01359,855.79519)"
       id="path3765"
       style="fill:#ffffff;fill-opacity:1;stroke:none" />
    <path
       d="m 110,55 a 15,15 0 1 1 -30,0 15,15 0 1 1 30,0 z"
       transform="matrix(2.4003881,0,0,2.4003881,-66.01165,795.78549)"
       id="path3767"
       style="fill:#ffffff;fill-opacity:1;stroke:none" />
    <path
       d="m 110,55 a 15,15 0 1 1 -30,0 15,15 0 1 1 30,0 z"
       transform="matrix(1.6002587,0,0,1.6002587,111.65416,886.40502)"
       id="path3769"
       style="fill:#ffffff;fill-opacity:1;stroke:none" />
    <g
       transform="translate(-54,-140)"
       id="g3765">
      <path
         d="m 110,55 a 15,15 0 1 1 -30,0 15,15 0 1 1 30,0 z"
         transform="matrix(2.4003881,0,0,2.4003881,228.46637,848.98471)"
         id="path3771"
         style="fill:#ffffff;fill-opacity:1;stroke:none" />
      <path
         d="m 110,55 a 15,15 0 1 1 -30,0 15,15 0 1 1 30,0 z"
         transform="matrix(4.0006472,0,0,4.0006472,232.35062,753.4531)"
         id="path3773"
         style="fill:#ffffff;fill-opacity:1;stroke:none" />
      <path
         d="m 110,55 a 15,15 0 1 1 -30,0 15,15 0 1 1 30,0 z"
         transform="matrix(3.2005182,0,0,3.2005182,269.56124,818.55622)"
         id="path3775"
         style="fill:#ffffff;fill-opacity:1;stroke:none" />
      <path
         d="m 110,55 a 15,15 0 1 1 -30,0 15,15 0 1 1 30,0 z"
         transform="matrix(2.4003881,0,0,2.4003881,315.2672,816.24865)"
         id="path3777"
         style="fill:#ffffff;fill-opacity:1;stroke:none" />
      <path
         d="m 110,55 a 15,15 0 1 1 -30,0 15,15 0 1 1 30,0 z"
         transform="matrix(3.0227428,0,0,3.0227428,218.0742,822.15192)"
         id="path3779"
         style="fill:#ffffff;fill-opacity:1;stroke:none" />
      <path
         d="m 110,55 a 15,15 0 1 1 -30,0 15,15 0 1 1 30,0 z"
         transform="matrix(2.3357687,0,0,2.3357687,455.71189,858.73818)"
         id="path3781"
         style="fill:#ffffff;fill-opacity:1;stroke:none" />
    </g>
  </g>
</svg>
