<?xml version="1.0" encoding="UTF-8" standalone="no"?>
<!-- Created with Inkscape (http://www.inkscape.org/) -->

<svg
   xmlns:dc="http://purl.org/dc/elements/1.1/"
   xmlns:cc="http://creativecommons.org/ns#"
   xmlns:rdf="http://www.w3.org/1999/02/22-rdf-syntax-ns#"
   xmlns:svg="http://www.w3.org/2000/svg"
   xmlns="http://www.w3.org/2000/svg"
   xmlns:xlink="http://www.w3.org/1999/xlink"
   version="1.1"
   width="500"
   height="150"
   id="svg2">
  <defs
     id="defs4" />
  <metadata
     id="metadata7">
    <rdf:RDF>
      <cc:Work
         rdf:about="">
        <dc:format>image/svg+xml</dc:format>
        <dc:type
           rdf:resource="http://purl.org/dc/dcmitype/StillImage" />
        <dc:title />
      </cc:Work>
    </rdf:RDF>
  </metadata>
  <g
     transform="translate(0,-902.36218)"
     id="layer1">
    <path
       d="m 36.365494,279.79694 a 92.934036,92.934036 0 1 1 -185.868074,0 92.934036,92.934036 0 1 1 185.868074,0 z"
       transform="matrix(0.75322242,0,0,0.75322242,42.608695,841.61286)"
       id="path2987"
       style="fill:#b8ec93;fill-opacity:1;stroke:none" />
    <path
       d="m 36.365494,279.79694 a 92.934036,92.934036 0 1 1 -185.868074,0 92.934036,92.934036 0 1 1 185.868074,0 z"
       transform="matrix(0.40351201,0,0,0.40351201,77.826086,886.96076)"
       id="path3757"
       style="fill:#b8ec93;fill-opacity:1;stroke:none" />
    <path
       d="m 36.365494,279.79694 a 92.934036,92.934036 0 1 1 -185.868074,0 92.934036,92.934036 0 1 1 185.868074,0 z"
       transform="matrix(0.53850734,0,0,0.53850734,215.46258,856.73514)"
       id="path3759"
       style="fill:#b8ec93;fill-opacity:1;stroke:none" />
    <path
       d="m 36.365494,279.79694 a 92.934036,92.934036 0 1 1 -185.868074,0 92.934036,92.934036 0 1 1 185.868074,0 z"
       transform="matrix(0.70947135,0,0,0.70947135,312.0881,808.52938)"
       id="path3761"
       style="fill:#b8ec93;fill-opacity:1;stroke:none" />
    <path
       d="m 36.365494,279.79694 a 92.934036,92.934036 0 1 1 -185.868074,0 92.934036,92.934036 0 1 1 185.868074,0 z"
       transform="matrix(0.50233518,0,0,0.50233518,388.41637,838.49437)"
       id="path3763"
       style="fill:#b8ec93;fill-opacity:1;stroke:none" />
    <path
       d="m 36.365494,279.79694 a 92.934036,92.934036 0 1 1 -185.868074,0 92.934036,92.934036 0 1 1 185.868074,0 z"
       transform="matrix(0.44843753,0,0,0.44843753,455.36746,868.56584)"
       id="path3765"
       style="fill:#b8ec93;fill-opacity:1;stroke:none" />
    <use
       transform="translate(500,-4.9572559e-6)"
       id="use3767"
       style="fill:#b8ec93;fill-opacity:1"
       x="0"
       y="0"
       width="500"
       height="300"
       xlink:href="#path2987" />
    <path
       d="m 36.365494,279.79694 a 92.934036,92.934036 0 1 1 -185.868074,0 92.934036,92.934036 0 1 1 185.868074,0 z"
       transform="matrix(0.37661121,0,0,0.37661121,131.30435,901.98752)"
       id="path3769"
       style="fill:#b8ec93;fill-opacity:1;stroke:none" />
    <path
       d="m 36.365494,279.79694 a 92.934036,92.934036 0 1 1 -185.868074,0 92.934036,92.934036 0 1 1 185.868074,0 z"
       transform="matrix(0.70947135,0,0,0.70947135,394.0881,851.52938)"
       id="path3771"
       style="fill:#b8ec93;fill-opacity:1;stroke:none" />
    <path
       d="m 36.365494,279.79694 a 92.934036,92.934036 0 1 1 -185.868074,0 92.934036,92.934036 0 1 1 185.868074,0 z"
       transform="matrix(0.70947135,0,0,0.70947135,151.0678,863.85427)"
       id="path2992"
       style="fill:#b8ec93;fill-opacity:1;stroke:none" />
    <path
       d="m 36.365494,279.79694 a 92.934036,92.934036 0 1 1 -185.868074,0 92.934036,92.934036 0 1 1 185.868074,0 z"
       transform="matrix(0.70947135,0,0,0.70947135,249.19972,858.85427)"
       id="path2994"
       style="fill:#b8ec93;fill-opacity:1;stroke:none" />
    <path
       d="m 36.365494,279.79694 a 92.934036,92.934036 0 1 1 -185.868074,0 92.934036,92.934036 0 1 1 185.868074,0 z"
       transform="matrix(0.70947135,0,0,0.70947135,469.19972,848.85427)"
       id="path2996"
       style="fill:#b8ec93;fill-opacity:1;stroke:none" />
  </g>
</svg>
