<?xml version="1.0" encoding="UTF-8" standalone="no"?>
<!-- Created with Inkscape (http://www.inkscape.org/) -->

<svg
   xmlns:dc="http://purl.org/dc/elements/1.1/"
   xmlns:cc="http://creativecommons.org/ns#"
   xmlns:rdf="http://www.w3.org/1999/02/22-rdf-syntax-ns#"
   xmlns:svg="http://www.w3.org/2000/svg"
   xmlns="http://www.w3.org/2000/svg"
   xmlns:xlink="http://www.w3.org/1999/xlink"
   version="1.1"
   width="500"
   height="100"
   id="svg2">
  <defs
     id="defs4" />
  <metadata
     id="metadata7">
    <rdf:RDF>
      <cc:Work
         rdf:about="">
        <dc:format>image/svg+xml</dc:format>
        <dc:type
           rdf:resource="http://purl.org/dc/dcmitype/StillImage" />
        <dc:title />
      </cc:Work>
    </rdf:RDF>
  </metadata>
  <g
     transform="translate(0,-952.36218)"
     id="layer1">
    <path
       d="m 36.365494,279.79694 a 92.934036,92.934036 0 1 1 -185.868074,0 92.934036,92.934036 0 1 1 185.868074,0 z"
       transform="matrix(0.75322242,0,0,0.75322242,42.608695,851.61282)"
       id="path2987"
       style="fill:#d4f3bd;fill-opacity:1;stroke:none" />
    <path
       d="m 36.365494,279.79694 a 92.934036,92.934036 0 1 1 -185.868074,0 92.934036,92.934036 0 1 1 185.868074,0 z"
       transform="matrix(0.40351201,0,0,0.40351201,77.826086,896.96072)"
       id="path3757"
       style="fill:#d4f3bd;fill-opacity:1;stroke:none" />
    <path
       d="m 36.365494,279.79694 a 92.934036,92.934036 0 1 1 -185.868074,0 92.934036,92.934036 0 1 1 185.868074,0 z"
       transform="matrix(0.48470577,0,0,0.48470577,217.4191,871.78861)"
       id="path3759"
       style="fill:#d4f3bd;fill-opacity:1;stroke:none" />
    <path
       d="m 36.365494,279.79694 a 92.934036,92.934036 0 1 1 -185.868074,0 92.934036,92.934036 0 1 1 185.868074,0 z"
       transform="matrix(0.51698669,0,0,0.51698669,298.37109,868.14332)"
       id="path3761"
       style="fill:#d4f3bd;fill-opacity:1;stroke:none" />
    <path
       d="m 36.365494,279.79694 a 92.934036,92.934036 0 1 1 -185.868074,0 92.934036,92.934036 0 1 1 185.868074,0 z"
       transform="matrix(0.28712876,0,0,0.28712876,396.24246,908.70843)"
       id="path3763"
       style="fill:#d4f3bd;fill-opacity:1;stroke:none" />
    <path
       d="m 36.365494,279.79694 a 92.934036,92.934036 0 1 1 -185.868074,0 92.934036,92.934036 0 1 1 185.868074,0 z"
       transform="matrix(0.44843753,0,0,0.44843753,465.36746,878.5658)"
       id="path3765"
       style="fill:#d4f3bd;fill-opacity:1;stroke:none" />
    <use
       transform="translate(500,-4.9974266e-6)"
       id="use3767"
       style="fill:#d4f3bd;fill-opacity:1"
       x="0"
       y="0"
       width="500"
       height="300"
       xlink:href="#path2987" />
    <path
       d="m 36.365494,279.79694 a 92.934036,92.934036 0 1 1 -185.868074,0 92.934036,92.934036 0 1 1 185.868074,0 z"
       transform="matrix(0.37661121,0,0,0.37661121,139.18303,901.98748)"
       id="path3769"
       style="fill:#d4f3bd;fill-opacity:1;stroke:none" />
    <path
       d="m 36.365494,279.79694 a 92.934036,92.934036 0 1 1 -185.868074,0 92.934036,92.934036 0 1 1 185.868074,0 z"
       transform="matrix(0.70947135,0,0,0.70947135,380.13376,869.78827)"
       id="path3771"
       style="fill:#d4f3bd;fill-opacity:1;stroke:none" />
    <path
       d="m 36.365494,279.79694 a 92.934036,92.934036 0 1 1 -185.868074,0 92.934036,92.934036 0 1 1 185.868074,0 z"
       transform="matrix(0.70947135,0,0,0.70947135,151.0678,873.85423)"
       id="path2992"
       style="fill:#d4f3bd;fill-opacity:1;stroke:none" />
    <path
       d="m 36.365494,279.79694 a 92.934036,92.934036 0 1 1 -185.868074,0 92.934036,92.934036 0 1 1 185.868074,0 z"
       transform="matrix(0.70947135,0,0,0.70947135,249.19972,868.85423)"
       id="path2994"
       style="fill:#d4f3bd;fill-opacity:1;stroke:none" />
    <path
       d="m 36.365494,279.79694 a 92.934036,92.934036 0 1 1 -185.868074,0 92.934036,92.934036 0 1 1 185.868074,0 z"
       transform="matrix(0.70947135,0,0,0.70947135,469.19972,858.85423)"
       id="path2996"
       style="fill:#d4f3bd;fill-opacity:1;stroke:none" />
    <path
       d="m 36.365494,279.79694 a 92.934036,92.934036 0 1 1 -185.868074,0 92.934036,92.934036 0 1 1 185.868074,0 z"
       transform="matrix(0.28712876,0,0,0.28712876,356.24246,928.70843)"
       id="path2995"
       style="fill:#d4f3bd;fill-opacity:1;stroke:none" />
  </g>
</svg>
