<?xml version="1.0" encoding="UTF-8" standalone="no"?>
<!-- Created with Inkscape (http://www.inkscape.org/) -->

<svg
   xmlns:dc="http://purl.org/dc/elements/1.1/"
   xmlns:cc="http://creativecommons.org/ns#"
   xmlns:rdf="http://www.w3.org/1999/02/22-rdf-syntax-ns#"
   xmlns:svg="http://www.w3.org/2000/svg"
   xmlns="http://www.w3.org/2000/svg"
   xmlns:inkscape="http://www.inkscape.org/namespaces/inkscape"
   version="1.1"
   width="40"
   height="40"
   id="svg2">
  <defs
     id="defs4" />
  <metadata
     id="metadata7">
    <rdf:RDF>
      <cc:Work
         rdf:about="">
        <dc:format>image/svg+xml</dc:format>
        <dc:type
           rdf:resource="http://purl.org/dc/dcmitype/StillImage" />
        <dc:title />
      </cc:Work>
    </rdf:RDF>
  </metadata>
  <g
     transform="translate(0,-1012.3622)"
     id="layer1">
    <path
       d="m 29.5,20 a 9.5,9.5 0 1 1 -19,0 9.5,9.5 0 1 1 19,0 z"
       transform="translate(0,1012.3622)"
       id="path3107"
       style="fill:none;stroke:#ffffff;stroke-width:2;stroke-linecap:round;stroke-linejoin:round;stroke-miterlimit:4;stroke-opacity:1;stroke-dasharray:none" />
    <path
       d="m 18.0625,11.0625 -5.25,2.375 L 11,19.5 16.125,18.1875 16,14.9375 l 2.5625,-2 -0.5,-1.875 z m 5.25,0.5 L 22,15.3125 23.5625,15.375 22.375,17.8125 25,16.625 28.8125,17 l -0.875,-2.8125 -4.625,-2.625 z m 1.25,6.125 -4.1875,3.0625 2,2.3125 -0.625,3.5625 2.1875,2.0625 4.625,-4.25 1.3125,-5.125 -5.3125,-1.625 z M 13.5,19.5 l -2.375,1 0.5625,4.1875 L 16.75,28.875 18.0625,26.6875 15.625,23.25 16.1875,20.8125 13.5,19.5 z"
       inkscape:connector-curvature="0"
       transform="translate(0,1012.3622)"
       id="path3877"
       style="fill:#ffffff;fill-opacity:1;stroke:none" />
  </g>
</svg>
