<?xml version="1.0" encoding="UTF-8" standalone="no"?>
<!-- Created with Inkscape (http://www.inkscape.org/) -->

<svg
   xmlns:dc="http://purl.org/dc/elements/1.1/"
   xmlns:cc="http://creativecommons.org/ns#"
   xmlns:rdf="http://www.w3.org/1999/02/22-rdf-syntax-ns#"
   xmlns:svg="http://www.w3.org/2000/svg"
   xmlns="http://www.w3.org/2000/svg"
   xmlns:inkscape="http://www.inkscape.org/namespaces/inkscape"
   version="1.1"
   width="40"
   height="40"
   id="svg2">
  <defs
     id="defs4" />
  <metadata
     id="metadata7">
    <rdf:RDF>
      <cc:Work
         rdf:about="">
        <dc:format>image/svg+xml</dc:format>
        <dc:type
           rdf:resource="http://purl.org/dc/dcmitype/StillImage" />
        <dc:title />
      </cc:Work>
    </rdf:RDF>
  </metadata>
  <g
     transform="translate(0,-1012.3622)"
     id="layer1">
    <path
       d="m 25.90625,9.40625 c -1.159555,0 -2.125985,0.738699 -2.46875,1.78125 0.991734,0.973962 1.61215,2.3021 1.65625,3.78125 2.393361,1.669653 4.053161,4.320809 4.21875,7.40625 1.422847,-1.047476 2.34375,-2.72567 2.34375,-4.625 0,-2.2615 -1.318876,-4.21965 -3.21875,-5.15625 C 28.48273,12.40115 28.5,12.2062 28.5,12 28.5,10.5582 27.347998,9.40625 25.90625,9.40625 z m -6.3125,2.1875 c -1.943224,0 -3.53125,1.58805 -3.53125,3.53125 0,0.278 0.06404,0.5531 0.125,0.8125 -1.515894,0.7487 -2.768682,1.9898 -3.53125,3.5 -0.259066,-0.061 -0.534897,-0.09375 -0.8125,-0.09375 -1.9432241,0 -3.5,1.58805 -3.5,3.53125 0,1.9432 1.5567759,3.5 3.5,3.5 0.277603,0 0.553434,-0.03275 0.8125,-0.09375 1.265124,2.5542 3.889483,4.3125 6.9375,4.3125 4.275093,0 7.75,-3.44365 7.75,-7.71875 0,-3.046 -1.785797,-5.6741 -4.34375,-6.9375 0.06096,-0.2594 0.125,-0.5345 0.125,-0.8125 0,-1.9432 -1.588026,-3.53125 -3.53125,-3.53125 z m -0.28125,7.0625 c 0.09162,-0.019 0.184089,0 0.28125,0 0.77729,0 1.40625,0.62895 1.40625,1.40625 0,0.7773 -0.62896,1.40625 -1.40625,1.40625 -0.77729,0 -1.40625,-0.62895 -1.40625,-1.40625 0,-0.6801 0.483668,-1.27505 1.125,-1.40625 z m -2.53125,2.8125 c 0.77729,0 1.40625,0.62895 1.40625,1.40625 0,0.7773 -0.62896,1.40625 -1.40625,1.40625 -0.77729,0 -1.40625,-0.62895 -1.40625,-1.40625 0,-0.7773 0.62896,-1.40625 1.40625,-1.40625 z"
       inkscape:connector-curvature="0"
       transform="translate(0,1012.3622)"
       id="path2989"
       style="fill:#ffffff;fill-opacity:1;stroke:none" />
  </g>
</svg>
