<?xml version="1.0" encoding="UTF-8" standalone="no"?>
<!-- Created with Inkscape (http://www.inkscape.org/) -->

<svg
   xmlns:dc="http://purl.org/dc/elements/1.1/"
   xmlns:cc="http://creativecommons.org/ns#"
   xmlns:rdf="http://www.w3.org/1999/02/22-rdf-syntax-ns#"
   xmlns:svg="http://www.w3.org/2000/svg"
   xmlns="http://www.w3.org/2000/svg"
   xmlns:xlink="http://www.w3.org/1999/xlink"
   version="1.1"
   width="64"
   height="64"
   id="svg2">
  <defs
     id="defs4" />
  <metadata
     id="metadata7">
    <rdf:RDF>
      <cc:Work
         rdf:about="">
        <dc:format>image/svg+xml</dc:format>
        <dc:type
           rdf:resource="http://purl.org/dc/dcmitype/StillImage" />
        <dc:title />
      </cc:Work>
    </rdf:RDF>
  </metadata>
  <g
     transform="translate(0,-988.3622)"
     id="layer1">
    <g
       transform="matrix(1.25,0,0,1.25,12,-275.09055)"
       id="layer1-0">
      <g
         transform="matrix(2,0,0,2,0,-1052.3622)"
         id="g3760">
        <path
           d="m 15,9.5 a 5.5,5.5 0 1 1 -11,0 5.5,5.5 0 1 1 11,0 z"
           transform="translate(-0.5,1035.8622)"
           id="path2989"
           style="fill:#c0c0c0;fill-opacity:1;stroke:none" />
        <path
           d="m 12,3.5 a 2.5,2.5 0 1 1 -5,0 2.5,2.5 0 1 1 5,0 z"
           transform="translate(-0.5,1036.3622)"
           id="path3763"
           style="fill:#c0c0c0;fill-opacity:1;stroke:none" />
        <use
           transform="translate(-5.5,5.5)"
           id="use3765"
           x="0"
           y="0"
           width="16"
           height="16"
           xlink:href="#path3763" />
        <rect
           width="16"
           height="16"
           x="0"
           y="0"
           transform="translate(0,1036.3622)"
           id="rect2990"
           style="fill:none;stroke:none" />
      </g>
    </g>
  </g>
</svg>
